<mxfile host="app.diagrams.net" agent="Mozilla/5.0 (Windows NT 10.0; Win64; x64) AppleWebKit/537.36 (KHTML, like Gecko) Chrome/131.0.0.0 Safari/537.36 Edg/131.0.0.0" version="25.0.3">
  <diagram id="C5RBs43oDa-KdzZeNtuy" name="Page-1">
    <mxGraphModel dx="2571" dy="954" grid="1" gridSize="10" guides="1" tooltips="1" connect="1" arrows="1" fold="1" page="1" pageScale="1" pageWidth="827" pageHeight="1169" math="0" shadow="0">
      <root>
        <mxCell id="WIyWlLk6GJQsqaUBKTNV-0" />
        <mxCell id="WIyWlLk6GJQsqaUBKTNV-1" parent="WIyWlLk6GJQsqaUBKTNV-0" />
        <mxCell id="mvioNwK95yMqdUQ73LqQ-36" value="" style="swimlane;fontFamily=Sarabun;fontSource=https%3A%2F%2Ffonts.googleapis.com%2Fcss%3Ffamily%3DSarabun;" parent="WIyWlLk6GJQsqaUBKTNV-1" vertex="1">
          <mxGeometry x="-740" y="60" width="640" height="1670" as="geometry" />
        </mxCell>
        <mxCell id="xE9lvKekpY_54vqVYkne-0" style="edgeStyle=orthogonalEdgeStyle;rounded=0;orthogonalLoop=1;jettySize=auto;html=1;" edge="1" parent="mvioNwK95yMqdUQ73LqQ-36" source="mvioNwK95yMqdUQ73LqQ-35">
          <mxGeometry relative="1" as="geometry">
            <mxPoint x="320" y="160" as="targetPoint" />
          </mxGeometry>
        </mxCell>
        <mxCell id="mvioNwK95yMqdUQ73LqQ-35" value="&lt;font data-font-src=&quot;https://fonts.googleapis.com/css?family=Sarabun&quot; face=&quot;Sarabun&quot;&gt;Start&lt;/font&gt;" style="ellipse;whiteSpace=wrap;html=1;" parent="mvioNwK95yMqdUQ73LqQ-36" vertex="1">
          <mxGeometry x="255" y="40" width="130" height="30" as="geometry" />
        </mxCell>
        <mxCell id="xE9lvKekpY_54vqVYkne-4" style="edgeStyle=orthogonalEdgeStyle;rounded=0;orthogonalLoop=1;jettySize=auto;html=1;" edge="1" parent="mvioNwK95yMqdUQ73LqQ-36" source="xE9lvKekpY_54vqVYkne-1">
          <mxGeometry relative="1" as="geometry">
            <mxPoint x="320" y="330" as="targetPoint" />
          </mxGeometry>
        </mxCell>
        <mxCell id="xE9lvKekpY_54vqVYkne-1" value="Declare&lt;div&gt;personA&lt;/div&gt;&lt;div&gt;personB&lt;/div&gt;&lt;div&gt;is struct Person&lt;/div&gt;" style="rounded=0;whiteSpace=wrap;html=1;" vertex="1" parent="mvioNwK95yMqdUQ73LqQ-36">
          <mxGeometry x="260" y="160" width="120" height="60" as="geometry" />
        </mxCell>
        <mxCell id="xE9lvKekpY_54vqVYkne-12" style="edgeStyle=orthogonalEdgeStyle;rounded=0;orthogonalLoop=1;jettySize=auto;html=1;" edge="1" parent="mvioNwK95yMqdUQ73LqQ-36" source="xE9lvKekpY_54vqVYkne-5">
          <mxGeometry relative="1" as="geometry">
            <mxPoint x="320" y="460" as="targetPoint" />
          </mxGeometry>
        </mxCell>
        <mxCell id="xE9lvKekpY_54vqVYkne-5" value="Read&amp;nbsp;&lt;div&gt;personA.Name&lt;div&gt;personA.Age&lt;/div&gt;&lt;div&gt;personA.Sex&lt;/div&gt;&lt;div&gt;personA.Score&lt;/div&gt;&lt;/div&gt;" style="shape=parallelogram;perimeter=parallelogramPerimeter;whiteSpace=wrap;html=1;fixedSize=1;" vertex="1" parent="mvioNwK95yMqdUQ73LqQ-36">
          <mxGeometry x="233.75" y="330" width="172.5" height="90" as="geometry" />
        </mxCell>
        <mxCell id="xE9lvKekpY_54vqVYkne-7" style="edgeStyle=orthogonalEdgeStyle;rounded=0;orthogonalLoop=1;jettySize=auto;html=1;" edge="1" parent="mvioNwK95yMqdUQ73LqQ-36" source="xE9lvKekpY_54vqVYkne-6">
          <mxGeometry relative="1" as="geometry">
            <mxPoint x="555" y="110" as="targetPoint" />
          </mxGeometry>
        </mxCell>
        <mxCell id="xE9lvKekpY_54vqVYkne-6" value="&lt;font data-font-src=&quot;https://fonts.googleapis.com/css?family=Sarabun&quot; face=&quot;Sarabun&quot;&gt;struct Person&lt;/font&gt;" style="ellipse;whiteSpace=wrap;html=1;" vertex="1" parent="mvioNwK95yMqdUQ73LqQ-36">
          <mxGeometry x="490" y="40" width="130" height="30" as="geometry" />
        </mxCell>
        <mxCell id="xE9lvKekpY_54vqVYkne-9" style="edgeStyle=orthogonalEdgeStyle;rounded=0;orthogonalLoop=1;jettySize=auto;html=1;" edge="1" parent="mvioNwK95yMqdUQ73LqQ-36" source="xE9lvKekpY_54vqVYkne-8">
          <mxGeometry relative="1" as="geometry">
            <mxPoint x="555" y="200" as="targetPoint" />
          </mxGeometry>
        </mxCell>
        <mxCell id="xE9lvKekpY_54vqVYkne-8" value="Name&lt;div&gt;Age&lt;/div&gt;&lt;div&gt;Sex&lt;/div&gt;&lt;div&gt;Score&lt;/div&gt;" style="rounded=0;whiteSpace=wrap;html=1;" vertex="1" parent="mvioNwK95yMqdUQ73LqQ-36">
          <mxGeometry x="495" y="110" width="120" height="60" as="geometry" />
        </mxCell>
        <mxCell id="xE9lvKekpY_54vqVYkne-10" value="&lt;font face=&quot;Sarabun&quot;&gt;Return&lt;/font&gt;" style="ellipse;whiteSpace=wrap;html=1;" vertex="1" parent="mvioNwK95yMqdUQ73LqQ-36">
          <mxGeometry x="490" y="200" width="130" height="30" as="geometry" />
        </mxCell>
        <mxCell id="xE9lvKekpY_54vqVYkne-20" style="edgeStyle=orthogonalEdgeStyle;rounded=0;orthogonalLoop=1;jettySize=auto;html=1;" edge="1" parent="mvioNwK95yMqdUQ73LqQ-36" source="xE9lvKekpY_54vqVYkne-19">
          <mxGeometry relative="1" as="geometry">
            <mxPoint x="316.25" y="670" as="targetPoint" />
          </mxGeometry>
        </mxCell>
        <mxCell id="xE9lvKekpY_54vqVYkne-19" value="Read&amp;nbsp;&lt;div&gt;personB.Name&lt;div&gt;personB.Age&lt;/div&gt;&lt;div&gt;personB.Sex&lt;/div&gt;&lt;div&gt;personB.Score&lt;/div&gt;&lt;/div&gt;" style="shape=parallelogram;perimeter=parallelogramPerimeter;whiteSpace=wrap;html=1;fixedSize=1;" vertex="1" parent="mvioNwK95yMqdUQ73LqQ-36">
          <mxGeometry x="230" y="460" width="172.5" height="90" as="geometry" />
        </mxCell>
        <mxCell id="xE9lvKekpY_54vqVYkne-24" style="edgeStyle=orthogonalEdgeStyle;rounded=0;orthogonalLoop=1;jettySize=auto;html=1;" edge="1" parent="mvioNwK95yMqdUQ73LqQ-36" source="xE9lvKekpY_54vqVYkne-22">
          <mxGeometry relative="1" as="geometry">
            <mxPoint x="316.25" y="850" as="targetPoint" />
          </mxGeometry>
        </mxCell>
        <mxCell id="xE9lvKekpY_54vqVYkne-22" value="Display&amp;nbsp;&lt;div&gt;personA.Name&lt;div&gt;personA.Age&lt;/div&gt;&lt;div&gt;personA.Sex&lt;/div&gt;&lt;div&gt;personA.Score&lt;/div&gt;&lt;/div&gt;" style="shape=parallelogram;perimeter=parallelogramPerimeter;whiteSpace=wrap;html=1;fixedSize=1;" vertex="1" parent="mvioNwK95yMqdUQ73LqQ-36">
          <mxGeometry x="230" y="670" width="172.5" height="90" as="geometry" />
        </mxCell>
        <mxCell id="xE9lvKekpY_54vqVYkne-25" style="edgeStyle=orthogonalEdgeStyle;rounded=0;orthogonalLoop=1;jettySize=auto;html=1;" edge="1" parent="mvioNwK95yMqdUQ73LqQ-36" source="xE9lvKekpY_54vqVYkne-23">
          <mxGeometry relative="1" as="geometry">
            <mxPoint x="316.25" y="1029.9999999999998" as="targetPoint" />
          </mxGeometry>
        </mxCell>
        <mxCell id="xE9lvKekpY_54vqVYkne-23" value="Display&amp;nbsp;&lt;div&gt;personB.Name&lt;div&gt;personB.Age&lt;/div&gt;&lt;div&gt;personB.Sex&lt;/div&gt;&lt;div&gt;personB.Score&lt;/div&gt;&lt;/div&gt;" style="shape=parallelogram;perimeter=parallelogramPerimeter;whiteSpace=wrap;html=1;fixedSize=1;" vertex="1" parent="mvioNwK95yMqdUQ73LqQ-36">
          <mxGeometry x="230" y="850" width="172.5" height="90" as="geometry" />
        </mxCell>
        <mxCell id="xE9lvKekpY_54vqVYkne-26" value="&lt;font data-font-src=&quot;https://fonts.googleapis.com/css?family=Sarabun&quot; face=&quot;Sarabun&quot;&gt;End&lt;/font&gt;" style="ellipse;whiteSpace=wrap;html=1;" vertex="1" parent="mvioNwK95yMqdUQ73LqQ-36">
          <mxGeometry x="250" y="1030" width="130" height="30" as="geometry" />
        </mxCell>
      </root>
    </mxGraphModel>
  </diagram>
</mxfile>
